<mxfile host="app.diagrams.net" modified="2022-06-17T19:32:11.769Z" agent="5.0 (Windows NT 10.0; Win64; x64) AppleWebKit/537.36 (KHTML, like Gecko) Chrome/102.0.0.0 Safari/537.36" etag="6ODXGGOTnGchx1ykZwJd" version="17.4.0" type="github">
  <diagram id="LCrHjMViGoR8G7xinHYJ" name="Page-1">
    <mxGraphModel dx="1422" dy="737" grid="1" gridSize="10" guides="1" tooltips="1" connect="1" arrows="1" fold="1" page="1" pageScale="1" pageWidth="827" pageHeight="1169" math="0" shadow="0">
      <root>
        <mxCell id="0" />
        <mxCell id="1" parent="0" />
        <mxCell id="T_H0bxsxaXUiH4xamn8g-1" value="" style="ellipse;whiteSpace=wrap;html=1;aspect=fixed;gradientColor=none;fillColor=none;strokeWidth=46;" vertex="1" parent="1">
          <mxGeometry x="174" y="250" width="240" height="240" as="geometry" />
        </mxCell>
        <mxCell id="T_H0bxsxaXUiH4xamn8g-2" value="" style="ellipse;whiteSpace=wrap;html=1;aspect=fixed;gradientColor=none;fillColor=none;strokeWidth=46;" vertex="1" parent="1">
          <mxGeometry x="414" y="250" width="240" height="240" as="geometry" />
        </mxCell>
        <mxCell id="T_H0bxsxaXUiH4xamn8g-4" value="" style="shape=step;perimeter=stepPerimeter;whiteSpace=wrap;html=1;fixedSize=1;rounded=0;shadow=0;sketch=0;strokeWidth=1;fillColor=default;gradientColor=none;strokeColor=none;" vertex="1" parent="1">
          <mxGeometry x="523.25" y="220" width="21.5" height="60" as="geometry" />
        </mxCell>
        <mxCell id="T_H0bxsxaXUiH4xamn8g-5" value="" style="shape=step;perimeter=stepPerimeter;whiteSpace=wrap;html=1;fixedSize=1;rounded=0;shadow=0;sketch=0;strokeWidth=1;fillColor=default;gradientColor=none;strokeColor=none;rotation=70;" vertex="1" parent="1">
          <mxGeometry x="640" y="320" width="21.5" height="60" as="geometry" />
        </mxCell>
        <mxCell id="T_H0bxsxaXUiH4xamn8g-6" value="" style="shape=step;perimeter=stepPerimeter;whiteSpace=wrap;html=1;fixedSize=1;rounded=0;shadow=0;sketch=0;strokeWidth=1;fillColor=default;gradientColor=none;strokeColor=none;rotation=150;" vertex="1" parent="1">
          <mxGeometry x="590" y="440" width="21.5" height="60" as="geometry" />
        </mxCell>
        <mxCell id="T_H0bxsxaXUiH4xamn8g-7" value="" style="shape=step;perimeter=stepPerimeter;whiteSpace=wrap;html=1;fixedSize=1;rounded=0;shadow=0;sketch=0;strokeWidth=1;fillColor=default;gradientColor=none;strokeColor=none;rotation=-150;" vertex="1" parent="1">
          <mxGeometry x="470" y="450" width="21.5" height="60" as="geometry" />
        </mxCell>
      </root>
    </mxGraphModel>
  </diagram>
</mxfile>
